<?xml version="1.0" standalone="no"?>
<!DOCTYPE svg PUBLIC "-//W3C//DTD SVG 20010904//EN"
 "http://www.w3.org/TR/2001/REC-SVG-20010904/DTD/svg10.dtd">
<svg version="1.0" xmlns="http://www.w3.org/2000/svg"
 width="512.000000pt" height="512.000000pt" viewBox="0 0 512.000000 512.000000"
 preserveAspectRatio="xMidYMid meet">

<g transform="translate(0.000000,512.000000) scale(0.100000,-0.100000)"
fill="#000000" stroke="none">
<path d="M2567 3120 c-70 -76 -126 -177 -152 -275 -9 -33 -19 -122 -22 -198
l-6 -138 -44 42 -43 43 0 -31 c0 -47 -34 -83 -78 -83 l-37 0 103 -103 102
-102 0 -943 0 -942 -84 42 -83 41 -7 165 c-11 258 -51 429 -145 615 -243 480
-749 768 -1280 727 -144 -11 -269 -40 -468 -107 l-142 -48 177 0 c97 -1 215
-6 262 -13 691 -105 1255 -572 1479 -1224 22 -64 47 -152 57 -196 l17 -79 108
-54 109 -53 0 -103 0 -103 85 0 85 0 0 620 0 619 143 108 c78 58 193 153 256
210 111 101 115 107 172 221 173 349 460 572 859 669 53 13 161 17 565 22 545
7 534 5 555 64 15 46 -11 92 -63 110 -23 8 -190 66 -372 130 -395 138 -447
153 -586 168 -451 49 -906 -212 -1104 -634 -19 -39 -80 -218 -137 -396 l-103
-324 -90 -68 -90 -68 -3 642 c-1 430 1 659 9 694 16 79 65 169 128 233 54 55
55 57 28 57 -39 0 -77 39 -77 80 0 18 -4 33 -9 33 -5 0 -38 -31 -74 -70z"/>
</g>
</svg>
